# xmcd
#
# Track frame offsets: 
#        150
#        15436
#        29008
#        48371
#        60060
#        78979
#        96968
#        113974
#        127021
#        141194
#        164443
#        180717
#        194959
#        214029
#        231457
#        234118
#        250969
#        256122
#
# Disc length: 3449 seconds
#
# Revision: 0
# Processed by: cddbd v1.5.2PL0 Copyright (c) Steve Scherf et al.
# Submitted via: ExactAudioCopy v0.99pb5
#
DISCID=f90d7712
DTITLE=Das Dritte Ohr - Negerküsse
DYEAR=1999
DGENRE=Blues
TTITLE0=Boogie, bis du brennst
TTITLE1=Süsser Tee
TTITLE2=Dieses Lächeln
TTITLE3=Banken sind so
TTITLE4=Bin ein Fremder hier
TTITLE5=Paradies auf Erden
TTITLE6=Was ist zu tun
TTITLE7=Tut das gut
TTITLE8=Tom will auch einmal gemütlich im Sitzen spielen
TTITLE9=Moniko
TTITLE10=Wolffs Blasebalg
TTITLE11=Hüftschwung
TTITLE12=Wir sind wieder wer
TTITLE13=Heimweh
TTITLE14=Radio Regina
TTITLE15=Fernweh
TTITLE16=Wer nun den lieben langen Tag
TTITLE17=Endlich einer der aufräumt
EXTD=
EXTT0=
EXTT1=
EXTT2=
EXTT3=
EXTT4=
EXTT5=
EXTT6=
EXTT7=
EXTT8=
EXTT9=
EXTT10=
EXTT11=
EXTT12=
EXTT13=
EXTT14=
EXTT15=
EXTT16=
EXTT17=
PLAYORDER=
